<?xml version="1.0" standalone="no"?>
<!DOCTYPE svg PUBLIC "-//W3C//DTD SVG 20010904//EN"
 "http://www.w3.org/TR/2001/REC-SVG-20010904/DTD/svg10.dtd">
<svg version="1.0" xmlns="http://www.w3.org/2000/svg"
 width="302.000000pt" height="275.000000pt" viewBox="0 0 302.000000 275.000000"
 preserveAspectRatio="xMidYMid meet">

<g transform="translate(0.000000,275.000000) scale(0.100000,-0.100000)"
fill="#000000" stroke="none">
<path d="M0 1375 l0 -1375 1510 0 1510 0 0 1375 0 1375 -1510 0 -1510 0 0
-1375z m1450 733 c0 -7 -7 -31 -15 -53 -26 -72 -23 -76 43 -73 l57 3 22 65
c12 35 26 66 32 68 14 5 14 -3 -4 -62 -8 -27 -15 -55 -15 -62 0 -10 42 -13
178 -16 l178 -3 43 -32 c61 -45 83 -85 88 -163 6 -83 -22 -140 -90 -186 -38
-27 -60 -33 -127 -39 -44 -4 -80 -10 -80 -14 0 -4 11 -40 24 -81 13 -41 40
-129 61 -195 20 -66 41 -130 46 -143 12 -31 11 -44 -3 -40 -6 2 -25 47 -42 99
l-31 94 -54 3 c-79 5 -82 2 -64 -55 34 -110 42 -144 30 -140 -11 3 -19 25 -97
277 -21 69 -44 140 -50 158 l-12 33 -71 -3 -70 -3 -13 -40 c-7 -22 -34 -107
-59 -190 -67 -216 -68 -219 -77 -229 -19 -23 -17 7 7 80 36 115 36 116 -32
112 l-57 -3 -31 -94 c-17 -52 -37 -97 -43 -99 -15 -5 -15 -6 7 64 10 32 35
113 56 179 20 66 43 139 51 163 8 23 14 47 14 52 0 6 -66 10 -165 10 -140 0
-165 2 -165 15 0 13 26 15 170 15 167 0 171 0 180 23 13 33 98 309 102 332 3
19 -3 20 -167 23 -93 1 -174 7 -179 12 -7 7 53 10 171 10 133 0 183 3 190 13
5 6 18 38 27 70 16 51 36 77 36 45z m-902 -1236 c8 -10 11 -29 7 -47 -9 -46
-10 -68 -1 -92 11 -34 -21 -30 -37 5 -22 50 -57 51 -57 0 0 -23 -4 -29 -17
-26 -15 3 -18 17 -21 90 l-3 87 33 4 c47 6 81 -1 96 -21z m176 19 c14 -5 23
-25 32 -67 7 -32 15 -71 19 -86 6 -24 4 -28 -13 -28 -11 0 -22 8 -25 20 -4 15
-14 20 -37 20 -23 0 -33 -5 -37 -20 -5 -19 -23 -26 -35 -15 -10 10 34 160 50
173 18 14 19 14 46 3z m254 -13 c9 -8 12 -33 10 -82 -3 -66 -5 -72 -31 -84
-18 -9 -42 -11 -68 -7 l-39 7 0 88 0 89 33 4 c39 5 78 -1 95 -15z m1573 1 c5
-8 9 -43 9 -78 0 -77 -16 -101 -67 -101 -65 0 -73 11 -73 100 0 64 3 81 18 90
22 14 102 6 113 -11z m-1441 -80 c0 -81 -2 -90 -17 -87 -15 3 -18 17 -21 91
-3 82 -2 87 18 87 19 0 20 -6 20 -91z m136 56 c8 -19 18 -35 23 -35 5 0 16 16
25 35 9 19 23 35 31 35 19 0 19 -11 -2 -55 -16 -33 -16 -37 0 -70 21 -44 21
-55 2 -55 -8 0 -22 16 -31 35 -9 19 -22 35 -28 35 -7 0 -18 -16 -26 -35 -9
-22 -20 -35 -32 -35 -23 0 -22 2 2 50 20 39 20 39 0 84 -19 46 -19 46 1 46 13
0 25 -11 35 -35z m284 24 c0 -6 -9 -13 -20 -16 -18 -5 -20 -14 -20 -79 0 -67
-2 -74 -20 -74 -18 0 -20 7 -20 70 0 66 -2 71 -25 80 -45 17 -27 30 40 30 40
0 65 -4 65 -11z m170 -3 c0 -9 -12 -16 -32 -18 -21 -2 -33 -8 -33 -18 0 -10
12 -16 33 -18 38 -4 45 -32 8 -32 -27 0 -54 -26 -40 -40 5 -4 22 -10 37 -12
48 -5 34 -23 -20 -26 l-53 -3 0 90 0 91 50 0 c37 0 50 -4 50 -14z m188 2 c-3
-7 -18 -15 -34 -18 -28 -5 -29 -7 -29 -60 0 -55 0 -55 33 -58 20 -2 32 -9 32
-18 0 -18 -80 -20 -98 -2 -7 7 -12 40 -12 78 0 38 5 71 12 78 17 17 101 16 96
0z m114 -20 c3 -29 6 -33 33 -33 27 0 30 4 33 33 3 24 8 32 23 32 18 0 20 -6
17 -87 -3 -73 -6 -88 -20 -91 -13 -2 -17 5 -20 35 -3 35 -5 38 -33 38 -27 0
-30 -3 -33 -37 -3 -30 -7 -38 -23 -38 -17 0 -19 8 -19 90 0 82 2 90 19 90 15
0 21 -8 23 -32z m248 -13 c17 -25 35 -45 40 -45 6 0 10 20 10 45 0 33 4 45 15
45 12 0 15 -17 15 -90 0 -106 -12 -116 -57 -45 -40 64 -53 65 -53 5 0 -38 -4
-50 -15 -50 -12 0 -15 17 -15 90 0 106 12 115 60 45z m-1971 -302 c-1 -21 -3
-31 -6 -22 -2 10 -14 17 -28 17 -14 0 -26 -7 -28 -17 -3 -9 -5 -1 -6 17 -1 33
7 40 26 21 8 -8 15 -6 24 5 19 21 19 21 18 -21z m169 3 c4 -30 -10 -46 -40
-46 -14 0 -18 9 -18 41 0 38 1 40 28 37 21 -2 28 -9 30 -32z m277 7 c-1 -16 3
-34 9 -42 8 -10 6 -12 -9 -10 -20 4 -31 38 -21 65 9 24 22 16 21 -13z m275 1
c15 -38 12 -46 -11 -39 -14 5 -25 2 -30 -6 -6 -10 -9 -7 -9 10 0 18 4 22 20
18 13 -3 20 0 20 9 0 8 -3 13 -7 13 -17 -3 -24 2 -18 11 11 17 25 11 35 -16z
m296 -1 c-1 -16 2 -34 8 -42 8 -10 6 -12 -9 -10 -20 4 -31 38 -21 65 9 24 25
15 22 -13z m164 15 c0 -7 3 -22 6 -33 4 -16 0 -20 -20 -20 -20 0 -26 5 -26 21
0 20 17 44 32 44 4 0 8 -6 8 -12z m132 0 c-17 -17 -15 -45 3 -51 20 -8 28 9
20 41 -5 20 -4 24 5 16 6 -6 10 -24 8 -40 -2 -23 -8 -29 -28 -29 -22 0 -25 5
-28 38 -3 30 0 37 14 37 14 0 15 -3 6 -12z m293 -48 c30 0 34 3 38 33 4 26 4
24 3 -8 -1 -40 -1 -40 -41 -40 -40 0 -40 0 -41 40 -1 32 -1 34 3 8 4 -30 8
-33 38 -33z m162 8 c-2 -13 -4 -5 -4 17 -1 22 1 32 4 23 2 -10 2 -28 0 -40z
m126 15 c-7 -46 -13 -55 -13 -20 0 14 -3 32 -6 41 -4 10 -1 16 9 16 13 0 15
-8 10 -37z m177 1 c0 -34 -1 -35 -17 -18 -17 16 -18 16 -21 1 -6 -29 -22 -19
-22 13 0 30 14 40 24 18 4 -10 9 -8 18 5 17 23 18 22 18 -19z m390 21 c-10
-12 -10 -15 3 -15 8 0 17 -6 20 -12 7 -22 -4 -38 -26 -38 -20 0 -20 0 -1 14
18 14 18 15 2 21 -23 9 -24 45 -2 45 14 0 14 -3 4 -15z m-2143 -27 c-3 -7 -5
-2 -5 12 0 14 2 19 5 13 2 -7 2 -19 0 -25z m536 20 c3 -10 7 -10 20 1 15 12
17 10 17 -18 0 -31 -1 -32 -17 -15 -17 16 -18 16 -21 1 -6 -29 -22 -19 -22 13
0 30 15 41 23 18z m1453 -38 c8 0 14 10 14 25 0 14 5 25 10 25 12 0 13 -40 1
-58 -5 -8 -17 -12 -27 -10 -14 2 -19 12 -20 38 -1 26 -1 28 3 8 2 -16 11 -28
19 -28z m-2003 -12 c-9 -15 -23 -8 -23 12 0 17 2 19 14 8 8 -7 12 -16 9 -20z"/>
<path d="M1549 1933 c-5 -14 -21 -62 -34 -105 -14 -43 -36 -114 -50 -158 -14
-43 -25 -82 -25 -86 0 -3 40 -4 88 -2 76 3 94 7 130 31 132 87 104 283 -47
335 -47 16 -50 16 -62 -15z"/>
<path d="M1810 1952 c0 -5 10 -17 21 -28 30 -26 69 -112 69 -150 0 -51 -28
-116 -67 -156 l-37 -38 47 0 c215 0 272 282 75 365 -40 16 -108 21 -108 7z"/>
<path d="M464 845 c-4 -9 -2 -21 4 -27 16 -16 47 -5 47 17 0 26 -42 34 -51 10z"/>
<path d="M685 829 c-7 -33 5 -56 24 -45 12 8 14 36 5 60 -10 25 -22 19 -29
-15z"/>
<path d="M890 799 c0 -60 0 -60 28 -57 26 3 27 6 30 61 l3 57 -31 0 -30 0 0
-61z"/>
<path d="M2460 800 l0 -60 30 0 30 0 0 60 0 60 -30 0 -30 0 0 -60z"/>
<path d="M404 555 c-8 -20 3 -48 16 -40 13 8 13 55 0 55 -6 0 -13 -7 -16 -15z"/>
<path d="M1430 545 c0 -8 5 -15 10 -15 6 0 10 7 10 15 0 8 -4 15 -10 15 -5 0
-10 -7 -10 -15z"/>
</g>
</svg>
